<svg xmlns="http://www.w3.org/2000/svg" viewBox="0 0 100 100" fill="none">
  <defs>
    <linearGradient id="robotGradient" x1="0%" y1="0%" x2="100%" y2="100%">
      <stop offset="0%" style="stop-color:#00d4ff;stop-opacity:1" />
      <stop offset="100%" style="stop-color:#00ff41;stop-opacity:1" />
    </linearGradient>
  </defs>
  
  <!-- Robot Head -->
  <rect x="25" y="20" width="50" height="35" rx="8" fill="url(#robotGradient)" stroke="#00d4ff" stroke-width="2"/>
  
  <!-- Robot Eyes -->
  <circle cx="35" cy="35" r="4" fill="#00ff41"/>
  <circle cx="65" cy="35" r="4" fill="#00ff41"/>
  
  <!-- Robot Antenna -->
  <line x1="50" y1="20" x2="50" y2="10" stroke="#00d4ff" stroke-width="2" stroke-linecap="round"/>
  <circle cx="50" cy="10" r="3" fill="#00ff41"/>
  
  <!-- Robot Body -->
  <rect x="20" y="55" width="60" height="30" rx="5" fill="url(#robotGradient)" stroke="#00d4ff" stroke-width="2"/>
  
  <!-- Robot Arms -->
  <rect x="5" y="60" width="15" height="20" rx="3" fill="url(#robotGradient)" stroke="#00d4ff" stroke-width="2"/>
  <rect x="80" y="60" width="15" height="20" rx="3" fill="url(#robotGradient)" stroke="#00d4ff" stroke-width="2"/>
  
  <!-- Robot Legs -->
  <rect x="30" y="85" width="12" height="10" rx="2" fill="url(#robotGradient)" stroke="#00d4ff" stroke-width="2"/>
  <rect x="58" y="85" width="12" height="10" rx="2" fill="url(#robotGradient)" stroke="#00d4ff" stroke-width="2"/>
  
  <!-- Circuit Details -->
  <line x1="30" y1="65" x2="70" y2="65" stroke="#00ff41" stroke-width="1"/>
  <line x1="30" y1="70" x2="70" y2="70" stroke="#00ff41" stroke-width="1"/>
  <line x1="30" y1="75" x2="70" y2="75" stroke="#00ff41" stroke-width="1"/>
  
  <!-- Power Button -->
  <circle cx="50" cy="70" r="3" fill="#00ff41" stroke="#00d4ff" stroke-width="1"/>
</svg>
